<svg width="41" height="41" viewBox="0 0 41 41" fill="none" xmlns="http://www.w3.org/2000/svg">
<path d="M37.5324 16.8707C37.9808 15.5241 38.1363 14.0974 37.9886 12.6859C37.8409 11.2744 37.3934 9.91076 36.676 8.68622C35.6126 6.83404 33.9882 5.3676 32.0373 4.4985C30.0864 3.62941 27.9098 3.40259 25.8215 3.85078C24.8796 2.7893 23.7219 1.94125 22.4257 1.36341C21.1295 0.785575 19.7249 0.491269 18.3058 0.500197C16.1708 0.495044 14.0893 1.16803 12.3614 2.42214C10.6335 3.67624 9.34853 5.44666 8.6917 7.47815C7.30085 7.76286 5.98686 8.3414 4.8377 9.17505C3.68854 10.0087 2.73073 11.0782 2.02839 12.312C0.956464 14.1591 0.498905 16.2988 0.721698 18.4228C0.944492 20.5467 1.83612 22.5449 3.268 24.1293C2.81966 25.4759 2.66413 26.9026 2.81182 28.3141C2.95951 29.7256 3.40701 31.0892 4.12437 32.3138C5.18791 34.1659 6.8123 35.6322 8.76321 36.5013C10.7141 37.3704 12.8907 37.5973 14.9789 37.1492C15.9208 38.2107 17.0786 39.0587 18.3747 39.6366C19.6709 40.2144 21.0755 40.5087 22.4946 40.4998C24.6307 40.5054 26.7133 39.8321 28.4418 38.5772C30.1704 37.3223 31.4556 35.5506 32.1119 33.5179C33.5027 33.2332 34.8167 32.6547 35.9659 31.821C37.115 30.9874 38.0728 29.9178 38.7752 28.684C39.8458 26.8371 40.3023 24.6979 40.0789 22.5748C39.8556 20.4517 38.9639 18.4544 37.5324 16.8707ZM22.4978 37.8849C20.7443 37.8874 19.0459 37.2733 17.6994 36.1501C17.7601 36.117 17.8666 36.0586 17.936 36.0161L25.9004 31.4156C26.1003 31.3019 26.2663 31.137 26.3813 30.9378C26.4964 30.7386 26.5563 30.5124 26.5549 30.2825V19.0542L29.9213 20.998C29.9389 21.0068 29.9541 21.0198 29.9656 21.0359C29.977 21.052 29.9842 21.0707 29.9867 21.0902V30.3889C29.9842 32.375 29.1946 34.2791 27.7909 35.6841C26.3872 37.0892 24.4838 37.8806 22.4978 37.8849ZM6.39227 31.0064C5.51397 29.4888 5.19742 27.7107 5.49804 25.9832C5.55718 26.0187 5.66048 26.0818 5.73461 26.1244L13.699 30.7248C13.8975 30.8408 14.1233 30.902 14.3532 30.902C14.583 30.902 14.8088 30.8408 15.0073 30.7248L24.731 25.1103V28.9979C24.7321 29.0177 24.7283 29.0376 24.7199 29.0556C24.7115 29.0736 24.6988 29.0893 24.6829 29.1012L16.6317 33.7497C14.9096 34.7416 12.8643 35.0097 10.9447 34.4954C9.02506 33.9811 7.3598 32.7263 6.39227 31.0064ZM5.55723 13.1717C6.40811 11.7263 7.73696 10.6058 9.30236 10.0159C9.30292 10.0336 9.3081 10.0729 9.30792 10.0729L9.31871 19.0023C9.31839 19.2311 9.37839 19.4546 9.4961 19.6504C9.61381 19.8462 9.77775 20.0068 9.97001 20.1155L19.7686 25.7603L16.4021 27.7023C16.3865 27.7104 16.3688 27.7155 16.3507 27.7178C16.3326 27.7201 16.3144 27.7196 16.2967 27.7164L8.25842 23.0667C6.54021 22.0747 5.27585 20.5141 4.74686 18.6311C4.21786 16.7482 4.47077 14.7182 5.44586 12.9868C5.47429 13.0412 5.51677 13.1259 5.55723 13.1717ZM18.3228 5.86701C20.3697 5.86255 22.3338 6.66769 23.8106 8.10475C23.7513 8.14444 23.6442 8.20275 23.5764 8.2441L15.6138 12.8399C15.4157 12.9559 15.2499 13.1203 15.1341 13.3188C15.0184 13.5173 14.9566 13.7435 14.9566 13.9735V24.3747L11.5902 22.4311C11.5718 22.4196 11.5556 22.4029 11.5432 22.383C11.5309 22.3632 11.523 22.341 11.52 22.318V13.0214C11.5246 11.0358 12.3141 9.13254 13.7168 7.72773C15.1194 6.32292 17.0211 5.53024 19.0056 5.52436C18.7779 5.54544 18.55 5.60644 18.3228 5.66701V5.86701Z" fill="#888888"/>
</svg>